<svg xmlns="http://www.w3.org/2000/svg" viewBox="0 0 869.6 298.59"><defs><style>.cls-1{fill:#00904a;}.cls-1,.cls-2,.cls-3{fill-rule:evenodd;}.cls-2{fill:#e40520;}.cls-4{fill:#1d1d1b;}</style></defs><g id="Layer_2" data-name="Layer 2"><g id="Layer_1-2" data-name="Layer 1"><path class="cls-1" d="M850.24,66.19c38.53,64.57,17.76,148.36-46.36,187.15a136,136,0,0,1-34.72,14.86l.16,3,8.14,27.4-58.63-33.88L750.45,208l8.48,28.42.8,2.67a135.37,135.37,0,0,0,30.41-13.62c55.67-33.66,78.73-101.22,58.74-160.74"/><path class="cls-2" d="M730.18,273.21c-35-9.2-63.27-29.48-82.62-61.92A136.94,136.94,0,0,1,631.28,112l2,1.57,30.52,9.24L627,66.53,573.88,95.58l26.7,8.09,1.95.4A136.66,136.66,0,0,0,618,206.62a134.74,134.74,0,0,0,111.23,66.22"/><path class="cls-3" d="M616.18,70.58A135.32,135.32,0,0,1,805.81,57.7l-1.91,1.46L780.09,82.38l68.08-4-.6-61.8L827.82,35.84l-.58,1.46A135.12,135.12,0,0,0,615.33,70.85L614.69,72"/><path class="cls-4" d="M0,159.44c.86,2.33.92,43.45,0,46.81l-.07.32,25.36.15.14-4.85-.33.06a50.87,50.87,0,0,1-11.78.36l-4.47-.13c0-.48.1-17.33.12-17.84l13.71.11h0l2.58.25.17-4.63-.35.08c-3.43.85-8,.61-12.08.4l-4.15-.16c0-.48.1-16.77.12-17.27l13.85.12a6.06,6.06,0,0,1,2.09.31l.35.14.15-.31V159L0,158.94Z"/><path class="cls-4" d="M61.18,173.3C59,170,55.8,168.38,51.06,168.38a13.35,13.35,0,0,0-10.2,4.55v-3.58l-8.41-.12.17.48c.79,2.59.79,33.65,0,36.54l-.1.32,8.64.15-.07-.32c-.78-3.54-.5-13-.29-19.83l.13-6c0-4.31,3.72-6.26,7.41-6.26,4,0,5.84,1.85,5.84,6v23.83l-.3,2.44.26.19h8.52l-.15-.48c-.95-3.23-.63-12.49-.42-19.26l.14-5.88c0-4.33,2.72-6.83,7.43-6.83,4.25,0,5.91,1.69,5.91,6v23.83l-.32,2.49.42.14h8.19l-.08-.32c-.78-3.51-.5-13.71-.3-21.15l.12-6.2c0-7.09-3.75-10.67-11.15-10.67C67.81,168.38,64.62,169.78,61.18,173.3Z"/><path class="cls-4" d="M91.67,163c0,2.43,1.77,3.78,5,3.78,2.22,0,4.8-1,4.8-3.85,0-2.66-2.53-3.61-4.87-3.61S91.67,160.33,91.67,163Z"/><path class="cls-4" d="M92.15,169.53l.3,2.43v32.13l-.33,2.44.26.19h8.15l.09-.1c.06-.1.16-.24-.13-2.57V171.93l.29-2.26,0-.3-8.57-.14Z"/><path class="cls-4" d="M126.81,168.49c-4.24.17-7.24,1.11-9,4.46v-3.6l-8.14-.12.06.32c.74,3.38.59,33.89-.18,36.7l-.07.32,8.63.15-.07-.32c-.76-3.47-.5-11.7-.31-17.71l.15-5.68c0-2.91.71-5.09,2.16-6.48a7.23,7.23,0,0,1,5.52-1.75H127l.11-6.3Z"/><path class="cls-4" d="M163,200.89a4.28,4.28,0,0,1-2.1,1c-.8,0-1.85-.28-1.85-2.8V177.29c0-8-8.71-8.91-12.46-8.91a27.46,27.46,0,0,0-13,3.15l-.19.08,0,.25,1.31,5.29.46-.34c3.17-2.4,5.74-3.8,9.49-3.8,3.11,0,6.41,1.55,6.41,4.91s-3.82,4.58-8.25,5.87c-6.18,1.75-13.2,3.78-13.2,12.68,0,6.51,4.24,10.89,10.54,10.89,4.72,0,8-1.57,11.31-5.24.71,2.78,2.07,5.24,6.41,5.24a10.91,10.91,0,0,0,5.72-1.91l.11-.07.06-4.25v-.73ZM151,194a7.8,7.8,0,0,1-7.91,7.88c-3.4,0-5.7-2.46-5.7-6.11,0-5.49,4.79-7.28,9.43-9L151,185Z"/><path class="cls-4" d="M169.5,162.18l-.24,0-.11.25v6.89l-5.43-.11-.13,4.08,5.68.12c0,.51-.12,26.36-.12,26.36,0,5.16,2.38,7.57,7.48,7.57a15,15,0,0,0,6.44-1.45l.15-.07.07-4.07v-.67l-.54.32a6.75,6.75,0,0,1-3.2,1.08c-1.55,0-2.35-1-2.35-2.94V173.33l5.9.12.12-4.1-6.12-.12c0-.48.1-4.77.1-4.77l.17-2.65v-.12l-.09-.09C177.16,161.48,177.08,161.38,169.5,162.18Z"/><path class="cls-4" d="M218.46,198.53l-.48.4a16.44,16.44,0,0,1-10.47,4.21c-10.5,0-11.81-9.17-11.84-16.21l25.7.12v-.28c-.11-5.53-1.91-18.39-16.34-18.39-10.92,0-17.68,7.56-17.68,19.76s7,19.22,19.17,19.22a26.52,26.52,0,0,0,13-3.16c.16-.22.22-.32-.87-5.07Zm-13.81-26c4.81,0,7.56,3.61,8.23,10.65l-17-.12C196.92,176.18,200,172.52,204.65,172.52Z"/><path class="cls-4" d="M225.8,179.61c0,7,5.69,9.32,10.71,11.33,4,1.61,7.46,3,7.46,6.38,0,3.94-3.51,5.75-6.78,5.75-4.1,0-7.16-1.81-10.5-4.49l-.31-.26-.24.28L224.75,204l.19.1a25.69,25.69,0,0,0,12.18,3.28c7.13,0,14.74-3.18,14.74-12.09,0-7.33-5.87-9.55-11.05-11.53-3.86-1.47-7.18-2.74-7.18-5.82,0-3.45,3.26-5.26,6.48-5.26,2.74,0,5.66,1.11,9,3.4l.29.2.22-.27,1.32-4.88-.21-.09a27.06,27.06,0,0,0-11.28-2.64C232.63,168.38,225.8,171.85,225.8,179.61Z"/><path class="cls-4" d="M270.93,159.2v4.73l.28-.05a50.37,50.37,0,0,1,9.73-.26l3.46.09c0,.5-.12,40.38-.12,40.38l-.3,2.31,0,.31h9.45l-.08-.49-.28-2.14V163.6l10,.11h0l3.12.32.15-5-35.26-.1Z"/><path class="cls-4" d="M325.89,168.49c-4.27.17-7.27,1.11-9,4.46v-3.6l-8.13-.12.08.32c.71,3.38.56,33.9-.2,36.7l-.08.32,8.65.15-.08-.32c-.77-3.45-.49-11.7-.3-17.71l.14-5.68c0-2.91.73-5.09,2.16-6.48a7.25,7.25,0,0,1,5.53-1.75H326l.11-6.3Z"/><path class="cls-4" d="M362.07,200.88a4.28,4.28,0,0,1-2.12,1c-.78,0-1.83-.28-1.83-2.8V177.29c0-8-8.73-8.91-12.45-8.91a27.44,27.44,0,0,0-13,3.15l-.2.08,0,.25,1.3,5.29.44-.34c3.2-2.4,5.77-3.8,9.5-3.8,3.1,0,6.43,1.55,6.43,4.91s-3.82,4.58-8.26,5.86c-6.19,1.76-13.19,3.79-13.19,12.69,0,6.51,4.23,10.89,10.53,10.89,4.71,0,8-1.57,11.32-5.24.71,2.78,2,5.24,6.41,5.24a10.81,10.81,0,0,0,5.7-1.91l.13-.07.05-4.25v-.73Zm-12-6.89a7.8,7.8,0,0,1-7.92,7.88c-3.41,0-5.7-2.46-5.7-6.11,0-5.49,4.8-7.28,9.44-9l4.18-1.79Z"/><path class="cls-4" d="M375.06,173.7v-4.35l-8.14-.12.06.32c.68,3.2.52,34.4-.16,36.68l-.1.34.31.15h8.34l-.07-.32c-.77-3.53-.51-11.93-.31-18.05l.15-5.7c0-5.24,3.11-8.38,8.34-8.38,4.3,0,6.78,2.28,6.78,6.19v23.63l-.31,2.44.24.19h8.34l-.07-.32c-.77-3.74-.5-13.49-.29-20.58l.13-6.4c0-6.92-4.52-11-12.12-11C381,168.38,377.77,170,375.06,173.7Z"/><path class="cls-4" d="M405,179.61c0,7,5.68,9.32,10.7,11.33,4,1.61,7.45,3,7.45,6.38,0,3.94-3.5,5.75-6.77,5.75-4.1,0-7.16-1.81-10.48-4.49l-.33-.26-.23.28L404,204l.17.1a25.63,25.63,0,0,0,12.18,3.28c7.12,0,14.74-3.18,14.74-12.09,0-7.33-5.86-9.55-11.05-11.53-3.84-1.47-7.17-2.74-7.17-5.82,0-3.45,3.26-5.26,6.48-5.26,2.74,0,5.64,1.11,8.94,3.4l.31.2.22-.27,1.33-4.88-.21-.09a27.25,27.25,0,0,0-11.3-2.64C411.81,168.38,405,171.85,405,179.61Z"/><path class="cls-4" d="M455,168.38a12.78,12.78,0,0,0-10.5,5.49v-4.52l-8.14-.12.07.32c.56,3,.47,45.37-.1,47.7l-.09.33,8.56.14-.07-.33a24.77,24.77,0,0,1-.49-5.3l.23-5.36s.08-2.52.14-3.68a12.39,12.39,0,0,0,9.38,4.31c13.89,0,15-15.24,15-19.92C468.94,183,467.93,168.38,455,168.38Zm-2.51,34.33c-7.23,0-8.06-8.23-8.06-14.42,0-6.78,1-14.58,8.49-14.58,5.14,0,7.63,4.65,7.63,14.23C460.54,194.68,459.14,202.71,452.48,202.71Z"/><path class="cls-4" d="M491.37,168.38c-10.59,0-17.46,7.45-17.46,19,0,9.65,4.61,20,17.53,20s17.54-10,17.54-19.42C509,175.88,502.24,168.38,491.37,168.38Zm.07,35.19c-8.68,0-9.12-13.2-9.12-15.85s.44-15.48,9.12-15.48c8.48,0,9.14,12,9.14,15.62C500.58,190.49,500.14,203.57,491.44,203.57Z"/><path class="cls-4" d="M532.73,168.49c-4.26.17-7.24,1.11-9,4.46v-3.6l-8.14-.12,0,.32c.74,3.36.6,33.89-.16,36.7l-.08.32,8.64.15-.08-.32c-.76-3.45-.5-11.7-.31-17.71l.15-5.68c0-2.91.73-5.09,2.16-6.48a7.38,7.38,0,0,1,5.52-1.75h1.42l.13-6.3Z"/><path class="cls-4" d="M542,162.18l-.24,0-.1.25v6.89l-5.43-.11-.14,4.08,5.69.12c0,.51-.12,26.36-.12,26.36,0,5.16,2.38,7.57,7.47,7.57a15,15,0,0,0,6.44-1.45l.15-.07.08-4.07v-.67l-.57.32A6.61,6.61,0,0,1,552,202.5c-1.54,0-2.34-1-2.34-2.94V173.33l5.88.12.13-4.1-6.12-.12c0-.48.11-4.77.11-4.77l.15-2.65v-.12l-.08-.09C549.62,161.48,549.54,161.38,542,162.18Z"/><path class="cls-4" d="M527,109.18c0,10.5-5.52,18.4-16.79,18.4H484c-11.55,0-16.81-8.24-16.81-19,0-10.35,5.9-18.6,16.74-18.6,11.42,0,16.88,8.53,16.88,19.17v18.4c0,10.51-5.54,18.42-16.81,18.42H470.93v-3H484c7.71,0,9.32-9.52,9.32-15.45v-18.4c0-5.92-1.55-16-9.32-16s-9.32,10-9.32,15.88c0,4.16,1.1,10.93,6.53,10.93H513c5.45,0,6.52-6.77,6.52-10.93"/><path class="cls-4" d="M149.77,109.18c0,10.5-5.52,18.4-16.79,18.4H121.61c-11.55,0-16.81-8.24-16.81-19l0-25.79a8.4,8.4,0,0,0-.3-2.27h8a8.75,8.75,0,0,0-.28,2.27V109c0,4.16,1.08,10.93,6.53,10.93h16.93c5.42,0,6.51-6.77,6.51-10.93"/><path d="M89.82,109.11v18.4c0,5.93-1.63,15.45-9.32,15.45H67.44v3H80.5c11.29,0,16.81-7.91,16.81-18.42v-18.4a23.38,23.38,0,0,0-2.47-11h-7.1A26.81,26.81,0,0,1,89.82,109.11Z"/><path class="cls-4" d="M214.06,141.23h-5.94c-.56-1.57-.93-1.69-.93-3.38,0-4.45,2.66-3.78,5.79-3.78l-.47-2.82c-5.07,0-7.78-.39-7.78,6.29a3.56,3.56,0,0,0,.41,2.16l2,1.53h-1.93a14.14,14.14,0,0,1-4.86-.95l-.28.7,1.81,2.3a17.18,17.18,0,0,0,3.65.43h8.9Z"/><path class="cls-4" d="M70.9,82.82a9.21,9.21,0,0,0-.28-2.27h8a8.75,8.75,0,0,0-.28,2.27v42.51a8.61,8.61,0,0,0,.28,2.25h-8a8.2,8.2,0,0,0,.28-2.25Z"/><path class="cls-4" d="M452.23,82.82a9.71,9.71,0,0,0-.28-2.27h8a9.21,9.21,0,0,0-.28,2.27v42.51a9.05,9.05,0,0,0,.28,2.25h-8a9.05,9.05,0,0,0,.28-2.25Z"/><path class="cls-4" d="M381.07,93.09a8.59,8.59,0,0,0-.28-2.24h8a8.24,8.24,0,0,0-.3,2.24v26.2a8.26,8.26,0,0,0,.3,2.25h-8a8.2,8.2,0,0,0,.28-2.25Z"/><path class="cls-4" d="M339.33,83.72a8.48,8.48,0,0,0-.28-2.24h8a9,9,0,0,0-.29,2.24v35.57a9.08,9.08,0,0,0,.29,2.25h-8a8.61,8.61,0,0,0,.28-2.25Z"/><path class="cls-4" d="M195.63,83.72a8.92,8.92,0,0,0-.28-2.24h8a8.14,8.14,0,0,0-.3,2.24v35.57a8.26,8.26,0,0,0,.3,2.25h-8a9.05,9.05,0,0,0,.28-2.25Z"/><path class="cls-4" d="M235.57,80.55a8.78,8.78,0,0,0-.29,2.27v42.51a8.64,8.64,0,0,0,.29,2.25h-8a9.49,9.49,0,0,0,.26-2.25V83.59a9.51,9.51,0,0,0-.26-2.26Z"/><path class="cls-4" d="M159,89.45c-10.85,0-16.73,8.25-16.73,18.62v.54c0,10.73,5.25,19,16.8,19s16.82-8.24,16.82-19S170.44,89.45,159,89.45ZM168.4,109c0,2.85-.5,7-2.59,9.23a9.34,9.34,0,0,1-13.36.07h0c-2.14-2.26-2.68-6.42-2.68-9.3v-.55c0-5.87,1.62-15.87,9.32-15.87s9.31,10.07,9.31,16Z"/><path class="cls-4" d="M536.28,89.45c-10.85,0-16.73,8.25-16.73,18.62v.54c0,10.73,5.25,19,16.8,19s16.81-8.24,16.81-19S547.7,89.45,536.28,89.45ZM545.67,109c0,2.85-.5,7-2.6,9.23a9.34,9.34,0,0,1-13.36.07h0C527.57,116,527,111.85,527,109v-.55c0-5.87,1.63-15.87,9.33-15.87s9.32,10.07,9.32,16Z"/><path class="cls-4" d="M364,83a9.13,9.13,0,0,1,.28-2.26l-8,.78a8.56,8.56,0,0,1,.28,2.25v25.38c0,4.16-1.08,10.94-6.53,10.94h-26.5l3.11,7.69h20.61c11.55,0,16.8-8.27,16.8-19Z"/><path class="cls-4" d="M220.29,83a9.13,9.13,0,0,1,.28-2.26l-8,.78a8.56,8.56,0,0,1,.28,2.25v25.38c0,4.16-1.09,10.94-6.54,10.94h-26.5l3.1,7.69h20.62c11.55,0,16.81-8.27,16.81-19Z"/><path class="cls-4" d="M30,94.09c0,2.47-2.24,3.47-4.34,3.47-2.32,0-4.56-.71-4.56-3.4,0-2.47,2.38-3.31,4.49-3.31S30,91.62,30,94.09Z"/><path class="cls-4" d="M42.64,94.09c0,2.47-2.24,3.47-4.34,3.47-2.32,0-4.55-.71-4.55-3.4,0-2.47,2.38-3.31,4.47-3.31S42.64,91.62,42.64,94.09Z"/><path class="cls-4" d="M283.66,94.09c0,2.47-2.25,3.47-4.34,3.47-2.3,0-4.55-.71-4.55-3.4,0-2.47,2.38-3.31,4.47-3.31S283.66,91.62,283.66,94.09Z"/><path class="cls-4" d="M296.3,94.09c0,2.47-2.24,3.47-4.35,3.47-2.31,0-4.54-.71-4.54-3.4,0-2.47,2.37-3.31,4.47-3.31S296.3,91.62,296.3,94.09Z"/><path d="M309.54,108.56V109c0,4.16-1.08,10.93-6.53,10.93h-30.3c-4.62,0-15.11-.43-15.11-7V98.18l-3.58.08v14.59c0,12.13,10.64,14.73,20.66,14.73h25.55c11.55,0,16.81-8.24,16.81-19l0-8.11a8.87,8.87,0,0,1,.28-2.24h-8a9.32,9.32,0,0,1,.27,2.24Z"/><path d="M55.89,108.56V109c0,4.16-1.09,10.93-6.54,10.93H19.07c-4.62,0-15.13-.43-15.13-7V98.18l-3.57.08v14.59C.37,125,11,127.58,21,127.58H46.57c11.57,0,16.81-8.24,16.81-19l0-8.11a7.73,7.73,0,0,1,.3-2.24h-8a8.43,8.43,0,0,1,.28,2.24Z"/><path class="cls-4" d="M384.75,119.9V109.39c0-10.71,4.57-19,16.19-19l27,.42c10.86,0,16.74,7.41,16.74,17.76v.78c0,10.08-4.84,18.19-15.76,18.19H373.35c-11.27,0-14.82-8.11-14.82-18.61h5.53c0,4.16,1.07,10.93,6.53,10.93H430.7c5.45,0,6.53-6.77,6.53-10.93,0-5.86-1.62-15-9.32-15H401.48c-8.38,0-13,4.88-13,13.25v12"/></g></g></svg>