<svg xmlns="http://www.w3.org/2000/svg" width="227.225" height="41.392" viewBox="0 0 227.225 41.392">
  <g id="Group_17787" data-name="Group 17787" transform="translate(-58.65 -202.199)">
    <g id="Group_17785" data-name="Group 17785" transform="translate(113.769 207.113)">
      <g id="Group_17783" data-name="Group 17783" transform="translate(0)">
        <path id="Path_44691" data-name="Path 44691" d="M276.924,257.858a1.084,1.084,0,0,0-.8.338,1.134,1.134,0,1,0,1.6,0A1.082,1.082,0,0,0,276.924,257.858Z" transform="translate(-261.163 -244.894)" fill="#007575"/>
        <path id="Path_44692" data-name="Path 44692" d="M268.8,257.858a1.151,1.151,0,1,0,.8.338A1.087,1.087,0,0,0,268.8,257.858Z" transform="translate(-255.651 -244.894)" fill="#007575"/>
        <path id="Path_44693" data-name="Path 44693" d="M267.28,222.343a3.944,3.944,0,0,0-1.963.519,5.058,5.058,0,0,0-1.531,1.306V217.5h-2.078v9.577h-5.383a1.374,1.374,0,0,1-.993-.253,1.31,1.31,0,0,1-.222-.852v-3.42h-2.077v3.6a.964.964,0,0,1-.218.76,1.281,1.281,0,0,1-.758.168h-4.474a1.776,1.776,0,0,1-1.081-.253,1.054,1.054,0,0,1-.311-.852v-3.42h-2.077v3.6a.987.987,0,0,1-.211.76,1.309,1.309,0,0,1-.764.168H236.89c-.236,0-.386-.043-.45-.136a.937.937,0,0,1-.1-.5v-4.778h-2.715a4.411,4.411,0,0,0-1.179.163,3.2,3.2,0,0,0-1.086.553,3.015,3.015,0,0,0-.8.989,3.216,3.216,0,0,0-.313,1.488,2.883,2.883,0,0,0,.327,1.464,2.706,2.706,0,0,0,.8.888,2.959,2.959,0,0,0,1,.438,4.255,4.255,0,0,0,.928.121,4.307,4.307,0,0,0,.575-.041,5.46,5.46,0,0,0,.556-.105,1.694,1.694,0,0,0,.365.648,1.73,1.73,0,0,0,.533.394,2.417,2.417,0,0,0,.662.2,4.257,4.257,0,0,0,.746.057h6.729q.32,0,.647-.023a3.44,3.44,0,0,0,.633-.1,2.066,2.066,0,0,0,.575-.249,1.569,1.569,0,0,0,.461-.44,1.334,1.334,0,0,0,.362.416,1.937,1.937,0,0,0,.453.25,2.4,2.4,0,0,0,.5.119,3.41,3.41,0,0,0,.481.032h4.809c.214,0,.429-.008.648-.023a3.394,3.394,0,0,0,.63-.1,2.019,2.019,0,0,0,.575-.249,1.584,1.584,0,0,0,.465-.44,1.343,1.343,0,0,0,.719.665,2.683,2.683,0,0,0,.9.151h14.353v-2.864a4,4,0,0,0-.858-2.715A3.174,3.174,0,0,0,267.28,222.343Zm-33.015,3.469a1.535,1.535,0,0,1-.439.094c-.144.012-.284.015-.423.015a1.235,1.235,0,0,1-.553-.109,1,1,0,0,1-.341-.277.9.9,0,0,1-.175-.384,1.809,1.809,0,0,1-.051-.4,1.144,1.144,0,0,1,.3-.817,1.165,1.165,0,0,1,.887-.311h.8Zm34.334,1.262h-4.7a6.626,6.626,0,0,1,.575-1.065,4.98,4.98,0,0,1,.744-.887,3.545,3.545,0,0,1,.862-.607,2.091,2.091,0,0,1,.938-.224,1.737,1.737,0,0,1,.747.144,1.209,1.209,0,0,1,.488.4,1.565,1.565,0,0,1,.264.6,3.005,3.005,0,0,1,.082.728Z" transform="translate(-230.254 -217.497)" fill="#007575"/>
        <rect id="Rectangle_6203" data-name="Rectangle 6203" width="2.077" height="11.412" transform="translate(149.962 0.003)" fill="#007575"/>
        <path id="Path_44694" data-name="Path 44694" d="M726.071,234.227a3.132,3.132,0,0,0-.613-1.039,2.8,2.8,0,0,0-.938-.672,2.861,2.861,0,0,0-1.168-.24,2.924,2.924,0,0,0-.879.144,2.87,2.87,0,0,0-.9.5,4.637,4.637,0,0,0-.856.96,7.47,7.47,0,0,0-.756,1.512,2.944,2.944,0,0,1-.5.924c-.188.217-.345.323-.474.323h-4.332a.7.7,0,0,1-.335-.087,1.351,1.351,0,0,1-.341-.3,4.4,4.4,0,0,1-.407-.559c-.153-.235-.327-.522-.529-.864l-1.918-3.242-1.9,1.213,1.454,2.158c.276.4.47.681.57.85a.9.9,0,0,1,.151.43.341.341,0,0,1-.186.281,1.055,1.055,0,0,1-.564.12H707.48v1.838h2.784a4.7,4.7,0,0,0,1.155-.136,2.029,2.029,0,0,0,1-.661,5.272,5.272,0,0,0,.429.357,1.854,1.854,0,0,0,.449.246,2.5,2.5,0,0,0,.568.148,5.657,5.657,0,0,0,.789.046H719a4.512,4.512,0,0,0,.948-.094,1.669,1.669,0,0,0,.85-.561,5.062,5.062,0,0,0,1.356.655,4.7,4.7,0,0,0,1.3.192,2.631,2.631,0,0,0,2.141-.84,3.445,3.445,0,0,0,.7-2.276A3.845,3.845,0,0,0,726.071,234.227Zm-2.086,2.183a.966.966,0,0,1-.792.343,1.978,1.978,0,0,1-.773-.153,6.5,6.5,0,0,1-.76-.391,3.25,3.25,0,0,1,.7-1.584,1.257,1.257,0,0,1,.862-.446.908.908,0,0,1,.484.118.937.937,0,0,1,.325.306,1.318,1.318,0,0,1,.172.423,2.014,2.014,0,0,1,.061.479A1.412,1.412,0,0,1,723.985,236.41Z" transform="translate(-554.196 -227.063)" fill="#007575"/>
        <path id="Path_44695" data-name="Path 44695" d="M457.928,226.234a1.142,1.142,0,1,0-.8-.334A1.093,1.093,0,0,0,457.928,226.234Z" transform="translate(-384.03 -221.885)" fill="#007575"/>
        <path id="Path_44696" data-name="Path 44696" d="M449.809,226.234a1.146,1.146,0,1,0-.8-.334A1.082,1.082,0,0,0,449.809,226.234Z" transform="translate(-378.519 -221.885)" fill="#007575"/>
        <path id="Path_44697" data-name="Path 44697" d="M301.948,223.353a1.151,1.151,0,1,0-.8-.335A1.091,1.091,0,0,0,301.948,223.353Z" transform="translate(-278.148 -219.931)" fill="#007575"/>
        <path id="Path_44698" data-name="Path 44698" d="M234.723,220.869a1.14,1.14,0,0,0,1.133-1.134,1.135,1.135,0,0,0-2.27,0,1.142,1.142,0,0,0,1.136,1.134Z" transform="translate(-232.516 -218.248)" fill="#007575"/>
        <path id="Path_44699" data-name="Path 44699" d="M242.831,220.869a1.147,1.147,0,0,0,1.138-1.134,1.137,1.137,0,1,0-1.937.8A1.105,1.105,0,0,0,242.831,220.869Z" transform="translate(-238.021 -218.248)" fill="#007575"/>
        <path id="Path_44700" data-name="Path 44700" d="M446.74,237.752h-6.9a8.67,8.67,0,0,1-.893-.04,1.528,1.528,0,0,1-.56-.153.607.607,0,0,1-.292-.3,1.31,1.31,0,0,1-.08-.494v-2.334h-2.077v2.634a3.47,3.47,0,0,0,.168,1.166,1.741,1.741,0,0,0,.551.79,2.472,2.472,0,0,0,1.024.437,7.815,7.815,0,0,0,1.583.136h9.562v-6.363H446.74Z" transform="translate(-369.871 -228.174)" fill="#007575"/>
        <path id="Path_44701" data-name="Path 44701" d="M524.224,223.621a2.729,2.729,0,0,0-.934-.672,2.861,2.861,0,0,0-2.043-.1,2.789,2.789,0,0,0-.9.5,4.53,4.53,0,0,0-.856.96,7.254,7.254,0,0,0-.763,1.513,2.854,2.854,0,0,1-.5.924c-.186.216-.343.323-.472.323H513.14a.926.926,0,0,1-.566-.151c-.137-.1-.2-.339-.2-.711V217.5h-2.081v9a3.054,3.054,0,0,0,.186,1.15,1.806,1.806,0,0,0,.509.737,1.922,1.922,0,0,0,.782.4,3.9,3.9,0,0,0,1,.12h5.007a4.465,4.465,0,0,0,.942-.094,1.622,1.622,0,0,0,.846-.561,5,5,0,0,0,1.358.655,4.713,4.713,0,0,0,1.3.192,2.648,2.648,0,0,0,2.143-.84,3.444,3.444,0,0,0,.7-2.276,3.715,3.715,0,0,0-.225-1.328A3.075,3.075,0,0,0,524.224,223.621Zm-1.471,3.223a.961.961,0,0,1-.793.343,1.99,1.99,0,0,1-.772-.153,7,7,0,0,1-.76-.391,3.309,3.309,0,0,1,.7-1.584,1.276,1.276,0,0,1,.868-.446.936.936,0,0,1,.488.118,1,1,0,0,1,.316.306,1.426,1.426,0,0,1,.18.423,2.106,2.106,0,0,1,.053.479A1.4,1.4,0,0,1,522.752,226.844Z" transform="translate(-420.345 -217.497)" fill="#007575"/>
        <path id="Path_44702" data-name="Path 44702" d="M569.793,257.812a.517.517,0,0,1-.137-.362.484.484,0,0,1,.137-.35.581.581,0,0,1,.439-.145,3.2,3.2,0,0,1,.591.1v-1.071a1.98,1.98,0,0,0-.37-.111,1.864,1.864,0,0,0-.459-.051,1.527,1.527,0,0,0-.541.1,1.355,1.355,0,0,0-.468.284,1.39,1.39,0,0,0-.327.473,1.6,1.6,0,0,0-.123.648,1.975,1.975,0,0,0,.035.327.776.776,0,0,0,.109.313h-.654v1.12h3.119v-1.12h-.84A.656.656,0,0,1,569.793,257.812Z" transform="translate(-459.534 -243.51)" fill="#007575"/>
        <path id="Path_44703" data-name="Path 44703" d="M372.938,227.074H367.6s0,0-.006,0-.006,0-.01,0h-1.168v-.464a8,8,0,0,0-.159-1.67,3.77,3.77,0,0,0-.525-1.312,2.541,2.541,0,0,0-.968-.854,3.176,3.176,0,0,0-1.47-.305,3.1,3.1,0,0,0-1.391.3,3.017,3.017,0,0,0-1.02.787,3.6,3.6,0,0,0-.631,1.123,3.82,3.82,0,0,0-.215,1.26,3.468,3.468,0,0,0,.241,1.367,2.439,2.439,0,0,0,.67.931,2.71,2.71,0,0,0,1.024.518,5.016,5.016,0,0,0,1.294.158h.993a1.316,1.316,0,0,1-.223.568,1.444,1.444,0,0,1-.537.431,3.241,3.241,0,0,1-.919.278,8.01,8.01,0,0,1-1.393.1h-.366v1.951h.5a6.7,6.7,0,0,0,3.62-.791,3.35,3.35,0,0,0,1.432-2.536h8.645V217.5h-2.078Zm-8.6,0h-1.052a1.294,1.294,0,0,1-.874-.283,1.321,1.321,0,0,1-.329-1.042,1.816,1.816,0,0,1,.266-1.012.949.949,0,0,1,.856-.4.9.9,0,0,1,.9.5,2.962,2.962,0,0,1,.237,1.27Z" transform="translate(-318.352 -217.497)" fill="#007575"/>
        <path id="Path_44704" data-name="Path 44704" d="M680.668,240.183a8.585,8.585,0,0,1-.055,1.012,1.671,1.671,0,0,1-.249.708,1.115,1.115,0,0,1-.57.4,3.6,3.6,0,0,1-1.029.146V244.4a7.706,7.706,0,0,0,1.973-.242,2.455,2.455,0,0,0,1.212-.728,2.845,2.845,0,0,0,.617-1.3,9.029,9.029,0,0,0,.179-1.95v-4.765h-2.079Z" transform="translate(-534.705 -229.662)" fill="#007575"/>
        <path id="Path_44705" data-name="Path 44705" d="M568.6,227.074h-3.2v-5.643h-2.077v5.643h-3.072v1.838H570.68V217.5H568.6Z" transform="translate(-454.261 -217.497)" fill="#007575"/>
        <rect id="Rectangle_6204" data-name="Rectangle 6204" width="2.076" height="11.412" transform="translate(118.354 0.003)" fill="#007575"/>
        <path id="Path_44706" data-name="Path 44706" d="M493.834,240.183a7.859,7.859,0,0,1-.057,1.012,1.606,1.606,0,0,1-.251.708,1.088,1.088,0,0,1-.564.4,3.629,3.629,0,0,1-1.032.146V244.4a7.691,7.691,0,0,0,1.972-.242,2.494,2.494,0,0,0,1.218-.728,2.887,2.887,0,0,0,.613-1.3,9.085,9.085,0,0,0,.178-1.95v-4.765h-2.079Z" transform="translate(-407.88 -229.662)" fill="#007575"/>
        <rect id="Rectangle_6205" data-name="Rectangle 6205" width="2.076" height="11.412" transform="translate(58.601 0.003)" fill="#007575"/>
        <path id="Path_44707" data-name="Path 44707" d="M637.031,237.752h-1a.845.845,0,0,1-.736-.275,1.406,1.406,0,0,1-.2-.83v-2.716h-2.077v3.054a.6.6,0,0,1-.339.625,2.035,2.035,0,0,1-.8.142,1.111,1.111,0,0,1-.862-.3,1.14,1.14,0,0,1-.272-.807v-2.716h-2.063v5.309a2.162,2.162,0,0,1-.566,1.686,2.6,2.6,0,0,1-1.759.5,2.059,2.059,0,0,1-2.314-2.3v-2.111h-2.077V239.2q0,4.142,4.347,4.143a7.268,7.268,0,0,0,1.83-.209,3.174,3.174,0,0,0,1.377-.713,3.224,3.224,0,0,0,.872-1.322,6.306,6.306,0,0,0,.315-2.071,2.424,2.424,0,0,0,.709.365,3.318,3.318,0,0,0,1.183.194,3.493,3.493,0,0,0,1.117-.182,2.171,2.171,0,0,0,.932-.647,1.849,1.849,0,0,0,.276.327,1.614,1.614,0,0,0,.382.264,2.24,2.24,0,0,0,.557.174,3.981,3.981,0,0,0,.791.064h2.449v-6.363h-2.079Z" transform="translate(-496.153 -228.174)" fill="#007575"/>
        <rect id="Rectangle_6206" data-name="Rectangle 6206" width="2.077" height="11.412" transform="translate(80.868 0.003)" fill="#007575"/>
      </g>
      <g id="Group_17784" data-name="Group 17784" transform="translate(0 20.699)">
        <path id="Path_44708" data-name="Path 44708" d="M608.6,289.03h-2.237v.049c0,2.284,1.648,3.728,4.224,3.728,2.44,0,4.058-1.293,4.058-3.3a2.7,2.7,0,0,0-.791-1.957,4.5,4.5,0,0,0-1.912-.979l-1.507-.421c-1.336-.388-1.694-.667-1.694-1.32,0-.686.636-1.166,1.536-1.166a1.63,1.63,0,0,1,1.835,1.6.5.5,0,0,1-.018.142h2.224c-.047-2.145-1.522-3.47-3.869-3.47-2.331,0-3.9,1.247-3.9,3.081a2.9,2.9,0,0,0,2.35,2.828l1.724.5c1.352.407,1.755.734,1.755,1.445,0,.778-.682,1.277-1.755,1.277a1.876,1.876,0,0,1-2.022-2.037" transform="translate(-485.554 -281.94)" fill="#007575"/>
        <path id="Path_44709" data-name="Path 44709" d="M641.917,295.916h-2.129c-.029.886-.478,1.416-1.195,1.416-.916,0-1.507-.917-1.507-2.331,0-1.432.56-2.27,1.5-2.27.76,0,1.148.436,1.222,1.352h2.1a3.034,3.034,0,0,0-3.308-2.982c-2.179,0-3.587,1.552-3.587,3.929,0,2.348,1.424,3.918,3.575,3.918a3.1,3.1,0,0,0,3.336-3.032" transform="translate(-505 -288.159)" fill="#007575"/>
        <path id="Path_44710" data-name="Path 44710" d="M659.817,293.123h2.069v-3.688c0-1.616.448-2.39,1.394-2.39.87,0,1.2.481,1.217,1.71v4.367h2.063v-4.528a3.6,3.6,0,0,0-.386-2.016A2.555,2.555,0,0,0,664,285.445a2.719,2.719,0,0,0-2.112,1.056v-3.732h-2.069Z" transform="translate(-521.842 -282.503)" fill="#007575"/>
        <path id="Path_44711" data-name="Path 44711" d="M691.279,295.026a3.8,3.8,0,1,0-3.791,3.917,3.619,3.619,0,0,0,3.791-3.917m-5.515,0c0-1.493.619-2.362,1.724-2.362,1.087,0,1.708.854,1.708,2.347,0,1.509-.621,2.379-1.708,2.379s-1.724-.886-1.724-2.363" transform="translate(-538.042 -288.154)" fill="#007575"/>
        <path id="Path_44712" data-name="Path 44712" d="M717.591,295.026a3.8,3.8,0,1,0-3.794,3.917,3.62,3.62,0,0,0,3.794-3.917m-5.516,0c0-1.493.621-2.362,1.722-2.362s1.712.854,1.712,2.347c0,1.509-.619,2.379-1.712,2.379s-1.722-.886-1.722-2.363" transform="translate(-555.901 -288.154)" fill="#007575"/>
        <rect id="Rectangle_6207" data-name="Rectangle 6207" width="2.071" height="10.354" transform="translate(162.509 0.266)" fill="#007575"/>
        <path id="Path_44713" data-name="Path 44713" d="M751.71,293.679v-.121c0-1.509-1.228-2.457-3.17-2.457s-3.186.914-3.186,2.347a1.947,1.947,0,0,0,.435,1.225c.448.576,1.009.823,2.565,1.136,1.026.2,1.4.465,1.4.931,0,.434-.468.718-1.168.718-.838,0-1.3-.41-1.3-1.184v-.015h-2.1c.033,1.724,1.259,2.689,3.4,2.689,2.04,0,3.311-.919,3.311-2.408,0-1.135-.67-1.819-2.157-2.193l-1.494-.389c-.557-.139-.805-.342-.805-.681,0-.438.386-.717,1.011-.717.776,0,1.244.357,1.244.947v.172Z" transform="translate(-579.79 -288.159)" fill="#007575"/>
        <path id="Path_44714" data-name="Path 44714" d="M230.254,293.123h7.333V291.3h-5.157v-2.548h4.691v-1.821h-4.691v-2.363h5v-1.8h-7.18Z" transform="translate(-230.254 -282.503)" fill="#007575"/>
        <path id="Path_44715" data-name="Path 44715" d="M257.312,298.779h2.067v-3.688c0-1.675.417-2.408,1.41-2.408.794,0,1.093.467,1.093,1.728v4.367h2.063v-3.7c0-1.634.437-2.394,1.384-2.394.716,0,1.133.545,1.133,1.509v4.586h2.067v-4.618c0-1.477-.2-2.033-.946-2.55a3.112,3.112,0,0,0-1.759-.51,2.486,2.486,0,0,0-2.314,1.258,2.541,2.541,0,0,0-4.243-.217v-.868h-1.955Z" transform="translate(-248.621 -288.159)" fill="#007575"/>
        <rect id="Rectangle_6208" data-name="Rectangle 6208" width="2.069" height="7.506" transform="translate(21.401 3.115)" fill="#007575"/>
        <path id="Path_44716" data-name="Path 44716" d="M307.964,298.779h2.069v-3.312c0-1.232.169-1.8.68-2.174A2.045,2.045,0,0,1,312,292.9a2.358,2.358,0,0,1,.56.061v-1.788a1.311,1.311,0,0,0-.56-.077,2.3,2.3,0,0,0-2.083,1.134v-.962h-1.956Z" transform="translate(-283.004 -288.159)" fill="#007575"/>
        <path id="Path_44717" data-name="Path 44717" d="M324.351,293.521h2.13c.048-.729.463-1.1,1.289-1.1.872,0,1.244.451,1.244,1.508a23.059,23.059,0,0,0-2.364.313,3.4,3.4,0,0,0-2,.883,2.114,2.114,0,0,0-.577,1.462c0,1.334,1.118,2.268,2.718,2.268a2.6,2.6,0,0,0,2.535-1.319v.307a3.8,3.8,0,0,0,.073.838h1.759a11.679,11.679,0,0,1-.2-2.578v-.7c.013-.621.013-.975.031-1.083a3.061,3.061,0,0,0-.727-2.486,3.4,3.4,0,0,0-2.521-.87c-2.018,0-3.278.96-3.386,2.56m4.662,1.758c-.034,1.413-.591,2.113-1.662,2.113-.67,0-1.134-.359-1.134-.885,0-.575.509-.873,1.819-1.076l.7-.106Z" transform="translate(-293.938 -288.063)" fill="#007575"/>
        <path id="Path_44718" data-name="Path 44718" d="M352.289,287.791h-1.195v-1.813h-2.067v1.813h-1.1v1.556h1.1V292.8a3.668,3.668,0,0,0,.2,1.571,1.97,1.97,0,0,0,2.051,1.1,3.01,3.01,0,0,0,1.011-.126v-1.538a1.713,1.713,0,0,1-.422.047c-.556,0-.773-.328-.773-1.15v-3.356h1.195Z" transform="translate(-310.129 -284.681)" fill="#007575"/>
        <path id="Path_44719" data-name="Path 44719" d="M370.745,296.47h-2.206a1.3,1.3,0,0,1-1.368.888,1.617,1.617,0,0,1-1.742-1.711h5.315c0-.263.018-.361.018-.482,0-2.516-1.43-4.071-3.7-4.071a3.927,3.927,0,0,0,.063,7.849,3.423,3.423,0,0,0,3.621-2.473m-5.331-2.314a1.585,1.585,0,0,1,1.632-1.537,1.5,1.5,0,0,1,1.569,1.537Z" transform="translate(-320.567 -288.154)" fill="#007575"/>
        <path id="Path_44720" data-name="Path 44720" d="M394.846,293.679v-.121c0-1.509-1.23-2.457-3.172-2.457s-3.186.914-3.186,2.347a1.952,1.952,0,0,0,.439,1.225c.447.576,1.009.823,2.561,1.136,1.025.2,1.4.465,1.4.931,0,.434-.466.718-1.166.718-.843,0-1.3-.41-1.3-1.184v-.015h-2.1c.029,1.724,1.258,2.689,3.4,2.689,2.035,0,3.311-.919,3.311-2.408,0-1.135-.67-1.819-2.161-2.193l-1.495-.389c-.557-.139-.807-.342-.807-.687,0-.433.388-.712,1.013-.712.774,0,1.238.357,1.238.947v.172Z" transform="translate(-337.55 -288.159)" fill="#007575"/>
        <path id="Path_44721" data-name="Path 44721" d="M296.586,284.107a1.089,1.089,0,0,0,.8.338,1.135,1.135,0,0,0,0-2.27,1.1,1.1,0,0,0-.8.334,1.121,1.121,0,0,0,0,1.6" transform="translate(-275.053 -282.1)" fill="#007575"/>
        <path id="Path_44722" data-name="Path 44722" d="M434.095,282.769h-2.086v8.02l-3.464-8.02h-3.217v10.354h2.067V285.1l3.54,8.021h3.16Z" transform="translate(-362.671 -282.503)" fill="#007575"/>
        <path id="Path_44723" data-name="Path 44723" d="M455.635,293.521h2.132c.045-.729.464-1.1,1.289-1.1.872,0,1.242.451,1.242,1.508a22.823,22.823,0,0,0-2.359.313,3.405,3.405,0,0,0-2,.883,2.106,2.106,0,0,0-.582,1.462c0,1.334,1.123,2.268,2.723,2.268a2.6,2.6,0,0,0,2.535-1.319v.307a3.75,3.75,0,0,0,.075.838h1.761a11.655,11.655,0,0,1-.207-2.578v-.7c.018-.621.018-.975.033-1.083a3.062,3.062,0,0,0-.726-2.486,3.4,3.4,0,0,0-2.521-.87c-2.02,0-3.28.96-3.39,2.56m4.663,1.758c-.03,1.413-.59,2.113-1.661,2.113-.668,0-1.132-.359-1.132-.885,0-.575.509-.873,1.816-1.076l.7-.106Z" transform="translate(-383.052 -288.063)" fill="#007575"/>
        <path id="Path_44724" data-name="Path 44724" d="M484.452,287.791h-1.193v-1.813H481.19v1.813h-1.1v1.556h1.1V292.8a3.627,3.627,0,0,0,.2,1.571,1.972,1.972,0,0,0,2.051,1.1,2.994,2.994,0,0,0,1.009-.126v-1.538a1.686,1.686,0,0,1-.417.047c-.558,0-.776-.328-.776-1.15v-3.356h1.193Z" transform="translate(-399.84 -284.681)" fill="#007575"/>
        <rect id="Rectangle_6209" data-name="Rectangle 6209" width="2.066" height="7.506" transform="translate(85.748 3.115)" fill="#007575"/>
        <path id="Path_44725" data-name="Path 44725" d="M514.783,295.031a3.8,3.8,0,1,0-3.791,3.918,3.618,3.618,0,0,0,3.791-3.918m-5.517,0c0-1.493.619-2.362,1.726-2.362,1.085,0,1.708.854,1.708,2.347,0,1.509-.623,2.379-1.708,2.379s-1.726-.886-1.726-2.363" transform="translate(-418.235 -288.159)" fill="#007575"/>
        <path id="Path_44726" data-name="Path 44726" d="M536.263,291.268h-1.957v7.506h2.065V294.89c0-1.5.435-2.205,1.385-2.205.852,0,1.193.481,1.193,1.694v4.4h2.07V294.52a4.855,4.855,0,0,0-.217-1.961,2.422,2.422,0,0,0-2.349-1.458,2.591,2.591,0,0,0-2.19,1.1Z" transform="translate(-436.645 -288.159)" fill="#007575"/>
        <path id="Path_44727" data-name="Path 44727" d="M558.76,293.521h2.129c.045-.729.462-1.1,1.285-1.1.88,0,1.246.451,1.246,1.508a22.771,22.771,0,0,0-2.359.313,3.417,3.417,0,0,0-2.006.883,2.125,2.125,0,0,0-.574,1.462c0,1.334,1.117,2.268,2.715,2.268a2.6,2.6,0,0,0,2.537-1.319v.307a3.848,3.848,0,0,0,.073.838h1.761a11.8,11.8,0,0,1-.2-2.578v-.7c.018-.621.018-.975.03-1.083a3.048,3.048,0,0,0-.727-2.486,3.4,3.4,0,0,0-2.519-.87c-2.02,0-3.279.96-3.387,2.56m4.66,1.758c-.031,1.413-.591,2.113-1.661,2.113-.67,0-1.132-.359-1.132-.885,0-.575.507-.873,1.816-1.076l.7-.106Z" transform="translate(-453.055 -288.063)" fill="#007575"/>
        <rect id="Rectangle_6210" data-name="Rectangle 6210" width="2.065" height="10.354" transform="translate(113.564 0.266)" fill="#007575"/>
        <path id="Path_44728" data-name="Path 44728" d="M497.237,284.107a1.117,1.117,0,1,0-.337-.8,1.085,1.085,0,0,0,.337.8" transform="translate(-411.254 -282.1)" fill="#007575"/>
      </g>
    </g>
    <g id="Group_17786" data-name="Group 17786" transform="translate(58.65 202.199)">
      <path id="Path_44729" data-name="Path 44729" d="M98.916,221.014a4.255,4.255,0,1,0,4.253,4.259,4.26,4.26,0,0,0-4.253-4.259" transform="translate(-83.093 -214.971)" fill="#007575"/>
      <path id="Path_44730" data-name="Path 44730" d="M92.233,202.2c-1.938,5.285-7.531,11.054-11.392,14.918-4.735,4.856-10.363,9.372-14.718,11.157a11.854,11.854,0,0,0-.717,2.78c4.865-.981,11.426-4.99,17.131-11.113,5.675-6.093,9.188-12.638,9.7-17.742m-27.089,11.2c-.2.233-.486.624-.793,1.07.47-.644.793-1.07.793-1.07m-.793,1.07a45.915,45.915,0,0,0-3.173,4.84c-2.558,4.987-3.342,9.036-1.571,10.748a5.042,5.042,0,0,0,3.626,1.236,11.007,11.007,0,0,0,1.8-.161,20.089,20.089,0,0,1,.881-2.767,9,9,0,0,1-3.213.724,3.187,3.187,0,0,1-3.114-1.86c-.842-1.731,0-5.145,2.87-9.832,0,0,1.041-1.685,1.9-2.929" transform="translate(-58.65 -202.199)" fill="#ae1843"/>
      <path id="Path_44731" data-name="Path 44731" d="M111.19,221.16c-1.94,5.283-7.532,11.054-11.392,14.918-4.716,4.837-10.313,9.334-14.663,11.136a12.358,12.358,0,0,0-.755,2.8c4.86-.991,11.415-5,17.113-11.116,5.677-6.088,9.19-12.634,9.7-17.74M84.1,232.356c-.2.231-.478.614-.782,1.051.463-.637.782-1.051.782-1.051m-.782,1.051a44.762,44.762,0,0,0-3.184,4.861q-.8,1.551-1.356,2.964c.069-.028.14-.057.211-.087a28.626,28.626,0,0,1,2.422-4.79s1.053-1.7,1.908-2.948m-5.048,10.518c-.123.029-.252.051-.376.074-.526,2.266-.355,4.026.667,5.014a5.062,5.062,0,0,0,3.627,1.241,10.589,10.589,0,0,0,1.825-.174,20.677,20.677,0,0,1,.911-2.782,9.071,9.071,0,0,1-3.269.744,3.193,3.193,0,0,1-3.115-1.857,4.142,4.142,0,0,1-.269-2.262" transform="translate(-71.517 -215.07)" fill="#007575"/>
      <path id="Path_44732" data-name="Path 44732" d="M79.608,283.379c-.068.031-.141.059-.211.087a20.092,20.092,0,0,0-.881,2.767c.122-.021.251-.045.376-.074a11.852,11.852,0,0,1,.717-2.78" transform="translate(-72.134 -257.304)" fill="#4b2a38"/>
      <path id="Path_44733" data-name="Path 44733" d="M130.155,240.5c-1.941,5.282-7.53,11.05-11.393,14.914-6.113,6.274-13.705,11.969-18.144,11.969a3.194,3.194,0,0,1-3.113-1.856,4.283,4.283,0,0,1-.254-2.382c-.121.021-.242.046-.358.064-.563,2.329-.4,4.137.633,5.14a5.034,5.034,0,0,0,3.626,1.242c4.938,0,12.7-4.258,19.307-11.35,5.675-6.094,9.189-12.635,9.7-17.739m-27.878,12.255A45.565,45.565,0,0,0,99.1,257.6q-.756,1.475-1.3,2.826c.068-.029.141-.056.21-.085a29.458,29.458,0,0,1,2.366-4.651s1.046-1.691,1.9-2.935" transform="translate(-84.391 -228.198)" fill="#ae1843"/>
      <path id="Path_44734" data-name="Path 44734" d="M98.681,302.273c-.069.03-.138.057-.209.085a20.225,20.225,0,0,0-.911,2.782c.122-.018.24-.043.361-.064a12.345,12.345,0,0,1,.758-2.8" transform="translate(-85.063 -270.129)" fill="#4b2a38"/>
      <path id="Path_44735" data-name="Path 44735" d="M115.12,275.337c-.2.235-.484.625-.787,1.066.465-.639.787-1.066.787-1.066" transform="translate(-96.448 -251.845)" fill="#ae1e3a"/>
    </g>
  </g>
</svg>
