<?xml version="1.0" encoding="utf-8"?>
<!-- Generator: Adobe Illustrator 26.0.2, SVG Export Plug-In . SVG Version: 6.00 Build 0)  -->
<svg version="1.1" id="Layer_1" xmlns="http://www.w3.org/2000/svg" xmlns:xlink="http://www.w3.org/1999/xlink" x="0px" y="0px"
	 width="218px" height="80px" viewBox="0 0 218 80" style="enable-background:new 0 0 218 80;" xml:space="preserve">
<style type="text/css">
	.st0{fill:#006487;}
</style>
<g>
	<path class="st0" d="M35.2,56.4c2.7,0.1,4.5,0.1,5.6,0.1c4.7,0,8-1.5,10.1-4.6c2.4-3.6,3.7-7.9,3.7-12.3c0-6.6-2.6-9.5-8.8-9.5
		c-0.7,0-2.9,0-6.6,0.1h-5.1v0.3l-1,6.2L32,43.3l-1.2,6.5L29.6,56l-0.1,0.3H30C32.5,56.4,34.2,56.4,35.2,56.4z M35.8,52.7
		c0.1-0.9,0.4-2.4,0.7-4.3c0.9-5.4,1.1-6.5,1.9-10.7c0.3-1.5,0.5-2.7,0.7-3.6l0.1-0.4c1.3-0.2,2.7-0.3,4-0.3c4,0,5.7,1.9,5.7,6.2
		c0.1,5.2-1.9,10.6-4.4,12.3c-1.4,0.9-3.1,1.3-4.8,1.2h-1.8c-0.8,0-1.4-0.1-1.7-0.1L35.8,53V52.7z"/>
	<path class="st0" d="M5.8,56c0.3-0.6,0.9-1.8,2-3.8c1-2,1.8-3.5,2.1-4l0.2-0.3h0.3c0.8,0,2.5,0,4.9,0c2,0,3.4,0,4.1,0h0.3v0.3
		c0.2,0.8,0.3,2.1,0.6,3.8c0.3,1.7,0.5,3.2,0.6,4.1v0.3h6.3l-0.1-0.3L26,50l-1.4-6.7c-0.3-1.5-0.8-3.7-1.3-6.6
		c-0.5-2.6-0.9-4.7-1.1-6.1v-0.4h-6.2l-0.2,0.3c-0.7,1.4-1.9,3.5-3.3,6.2c-4.2,7.4-5.8,10.4-7.5,13.1l-3.5,5.8l-0.3,0.6h4.6
		C5.7,56.2,5.8,56.1,5.8,56z M12,44.4c0.5-0.9,1.3-2.5,2.5-4.7s2-3.8,2.6-4.8l0.3-0.6l0.1,0.6c0.1,0.6,0.4,2.2,0.9,4.8
		c0.3,1.9,0.6,3.3,0.8,4.7l0.1,0.4l-0.4,0c-0.9,0-2,0-3.3,0s-2.6,0-3.5,0h-0.4L12,44.4z"/>
	<path class="st0" d="M127.1,30.1c-1.8-0.2-3.6-0.3-5.4-0.3c-5.3,0-9.3,2-11.5,5.6c-2.1,3.6-3.2,7.6-3.2,11.8
		c0,6.7,3.1,9.6,10.2,9.6c3.1,0,6.1-0.3,9.1-1.1l0.8-4.5c-2.4,1.1-5,1.8-7.7,1.8c-4.4,0-6.5-2.3-6.5-7c0.1-3.1,0.8-6.1,2.1-8.8
		c0.6-0.9,1.3-1.7,2.2-2.4c1.6-1,3.5-1.6,5.4-1.5c2.4,0,4.8,0.4,7.1,1.3l0.8-4.4c-0.2,0-0.3,0-0.5,0L127.1,30.1z"/>
	<path class="st0" d="M60.6,56c0.2-1.9,0.8-5.5,1.7-10.6c0.1-0.7,0.6-3.3,1.3-8l0.1-0.7l0.3,0.6c0.9,1.7,2.2,4.5,4.1,8.6L72.9,56
		l0.1,0.4h5.5c0-0.2,0-0.3,0-0.4c0.1-0.9,0.4-2.9,0.9-6.1l1.1-6.5l1.2-6.5c0.6-3.2,1-5.2,1.2-6.1c0-0.1,0-0.3,0.1-0.4h-3.8l-0.1,0.3
		c-0.8,5.6-1.4,8.8-3.1,18.5L76,50l-0.3-0.6l-4.3-8.8l-4.5-9.9l-0.1-0.4h-5.6v0.4l-1,6.1l-1.1,6.5l-1.2,6.5L56.7,56l-0.1,0.4h4
		C60.6,56.2,60.6,56.1,60.6,56z"/>
	<path class="st0" d="M103.4,53.2h-3.1H97h-3.5h-3.2H90c0-0.1,0-0.2,0-0.3c0.1-0.3,0.2-1,0.3-2c0.1-0.7,0.3-1.6,0.5-2.7
		c0.2-1.1,0.3-2.1,0.4-2.6c0.2-1.1,0.3-1.8,0.3-2c0-0.1,0-0.2,0-0.3h0.3h2.2h3.3h2.9h2.6h0.5l0.6-3.3h-2.8c-0.4,0-1.5,0-3,0h-5.9
		c0-0.1,0-0.2,0.1-0.3c0-0.2,0.1-0.7,0.3-1.4c0.1-0.5,0.1-1,0.3-1.7c0.1-0.7,0.2-1.2,0.3-1.4c0.1-0.7,0.2-1.1,0.3-1.3
		c0-0.1,0-0.2,0.1-0.3h0.3h2.7h3.4h3.3h2.9c0.1,0,0.2,0,0.3,0l0.6-3.3H88.4v0.1v0.3l-1,6.2l-1.1,6.5l-1.2,6.5l-1.2,6.2l-0.1,0.3
		h19.4l0.6-3.2H103.4z"/>
	<path class="st0" d="M180.9,43.3c-7.4,0.2-14.9,0.7-21.2,1.2c0.2,1.2,0.5,2.3,0.7,3.3c5.1,0.2,11.5,0.7,17.7,1.2l9.9,0.9
		c1.6-2.3,3.1-4.6,4.6-6.9C188.9,43,184.9,43.1,180.9,43.3z"/>
	<path class="st0" d="M161.2,54.6c0.1,1.5,0.1,2.8,0.1,3.8c3,1.6,5.9,3.4,8.8,5.3c1.7,1.1,3.5,2.4,5.1,3.6c1.6-2,3.2-4.1,4.7-6.2
		c-2-0.8-4.4-1.7-7-2.6C169.2,57.2,165,55.8,161.2,54.6z"/>
	<path class="st0" d="M193.7,7c-14,4.9-27.4,11.2-40.1,18.8c0.4,0.8,0.7,1.6,1,2.4c12-6,24.4-10.9,37.2-14.8
		c6.7-2,13.8-3.7,21.5-5.2c1.7-3.1,3.1-5.7,4.2-7.9C209.5,2.1,201.5,4.3,193.7,7z"/>
	<path class="st0" d="M157.1,35c0.3,0.9,0.6,1.8,0.9,2.7c9.1-2.4,18.3-4.2,27.6-5.6c5-0.8,10-1.4,15.1-2c1.5-2.5,3-4.9,4.3-7.3
		c-5.8,0.8-11.6,1.9-17.3,3.2C177.4,28.2,167.1,31.3,157.1,35z"/>
	<path class="st0" d="M156.5,33.3c10.5-4.1,21.2-7.5,32.2-10c0.8-2.4,1.5-4.7,2.2-6.9c-12.2,3.6-24.2,8.2-35.7,13.6
		c-2.7,1.2-5.3,2.5-7.9,3.8c-1.6,0.8-3.3,1.6-4.9,2.5c0.5,0.6,1.1,1.4,1.7,2.4c1.5-0.7,3.1-1.4,4.7-2.1
		C151.4,35.4,153.9,34.3,156.5,33.3z"/>
	<path class="st0" d="M159.2,42.7c7.6-0.9,15-1.5,22.6-1.9c0.9-2,1.8-4.1,2.6-6.1c-8.8,1.2-17.4,2.8-26,4.9c-2.5,0.7-5,1.3-7.4,1.9
		h0l-4.7,1.2c0.3,0.6,0.5,1.1,0.8,1.8c1.6-0.3,3.2-0.6,4.7-0.8C154.4,43.4,156.8,43.1,159.2,42.7z"/>
	<path class="st0" d="M176.9,51.4c-5.4-1-10.8-1.6-16.3-1.9c-2.6-0.1-5.1-0.3-7.4-0.3c-1.8,0-3.4-0.1-4.9,0c0.1,0.5,0.3,0.9,0.3,1.4
		c1.7,0.2,3.3,0.5,4.9,0.8c2.6,0.5,5.1,1,7.4,1.5c4.8,1.1,9.2,2.5,13.2,3.6C175,54.9,175.9,53.2,176.9,51.4z"/>
	<path class="st0" d="M2.5,70.7c0.6,0,1.1-0.2,1.5-0.6c0.1-0.4,0.2-0.8,0.2-1.2H8v-0.1c0.1-0.3,0.2-0.7,0.2-1c0-0.4-0.2-0.7-0.5-0.9
		c-0.2-0.3-0.5-0.4-0.9-0.4c-0.3,0-0.5,0.1-0.7,0.3C6,66.9,5.9,67,5.7,67l-1.6,1.1c-0.2-0.4-0.4-0.8-0.7-1.1l-0.4,0.5
		c0.3,0.3,0.5,0.7,0.7,1.1c0.1,0.1,0.1,0.2,0.1,0.4v0.2c-0.2,0.2-0.4,0.4-0.6,0.5c-0.2,0.1-0.5,0.2-0.7,0.2c-0.6,0-1-0.4-1.1-1.1
		c0-0.3,0-0.7,0-1v-0.1c-0.1,0.2-0.1,0.4-0.2,0.6c-0.1,0.4-0.1,0.8-0.1,1.2c0.1,0.3,0.2,0.7,0.5,0.9C1.8,70.6,2.2,70.7,2.5,70.7z
		 M5.4,67.9l0.2-0.2l0.3-0.2c0.2-0.1,0.3-0.2,0.5-0.3h0.1c0.3,0,0.5,0.1,0.7,0.3c0.2,0.2,0.4,0.5,0.5,0.8h-3L5.4,67.9z"/>
	<polygon class="st0" points="4.7,65.9 5.4,66.4 5.7,66 5.1,65.5 	"/>
	<path class="st0" d="M8.1,69.9C8.1,69.9,8.2,69.9,8.1,69.9C8.2,69.9,8.2,69.9,8.1,69.9L8.1,69.9z"/>
	<path class="st0" d="M9.2,67.9c0.1,0.2,0.3,0.3,0.4,0.5c0.1,0.2,0.2,0.4,0.3,0.6c-0.1,0.3-0.2,0.6-0.4,0.9C9.2,70,9,70.1,8.7,70.1
		c-0.2,0-0.4-0.1-0.5-0.1c0.2,0.2,0.3,0.4,0.5,0.5c0.1,0.1,0.3,0.2,0.5,0.2c0.3,0,0.6-0.3,0.8-0.8c0.2-0.4,0.3-0.9,0.2-1.3
		c-0.1-0.5-0.3-0.9-0.7-1.3L9.2,67.9z"/>
	<path class="st0" d="M38.9,69v-0.1l0.1-0.4c0.1-0.3,0.1-0.5,0.1-0.8l-0.4-2.2l0.1,0.1l0.2-0.7l-0.6-0.3c-0.1,0-0.2-0.1-0.2-0.1
		c-0.1-0.1-0.1-0.2-0.1-0.3l-0.2,0.5v0.1c0,0,0,0.1,0,0.1c0,0.1,0.1,0.2,0.2,0.2l0.7,2.9h-1.5l0,0h-0.7c-0.1,0-0.2-0.1-0.2-0.2
		l-0.5-3.7L35,65.1l0.4,3.2h-0.9l-1-0.1l-0.1-0.9c0-0.2-0.1-0.3-0.1-0.4c-0.1-0.1-0.3-0.2-0.5-0.2c-0.4,0-0.8,0.1-1.1,0.4
		c-0.3,0.3-0.5,0.7-0.6,1.1h-1.1l0,0h-1.6l0.1-0.1c0.2-0.3,0.3-0.6,0.4-0.9v-0.3c-0.1-0.4-0.4-0.7-1-0.7c-0.4,0-0.8,0.1-1.1,0.2
		l-0.3,0.9c0.5,0.1,1,0.4,1.1,1h-1.8h-0.2h-2.4h-0.2h-2.4h-0.2h-2.4h-0.2h-2.4h-0.2h-2.6l0,0.1H12c-0.1,0-0.2,0-0.3-0.1
		c-0.1,0-0.1-0.1-0.1-0.3l-0.5-3.5l-0.6,0.7l0.5,3.5v0.2c0,0.1,0.1,0.2,0.2,0.2c0.1,0,0.1,0,0.2,0h1.3l0,0h2.5h0.2H18h0.2h2.4h0.2
		h2.4h0.2h2.4l0,0h2.1l0.2-0.3l0.2,0.3h2l0-0.1h0.9l0.2-0.4l2,1.1l0.2-0.7h1l0,0h0.9l0.1-0.2c0.1,0.2,0.2,0.3,0.4,0.2h1.3l0,0H38.9z
		 M28.3,67.5c0-0.1-0.1-0.2-0.1-0.3L27.9,67c0.1,0,0.2,0,0.3,0c0.2,0,0.3,0.1,0.3,0.2C28.4,67.3,28.4,67.4,28.3,67.5z M31.9,68
		c0.1-0.3,0.5-0.6,0.9-0.5c0.2,0,0.4,0.1,0.4,0.3l0.1,1L31.9,68z"/>
	<polygon class="st0" points="43,71.2 42.6,71.6 43.2,72.1 43.5,71.8 43.9,72.1 44.3,71.8 43.7,71.2 43.4,71.6 	"/>
	<polygon class="st0" points="55.2,66.5 55.6,66.1 55,65.6 54.6,66 	"/>
	<path class="st0" d="M55.1,67.7l0.3,0.6h-1.1l0,0h-2.6h-0.2H49h-0.2h-2.5l-2.7,0L43.3,69h0.1c0.4,0,0.8,0.1,1.2,0.3
		c-0.1,0.1-0.2,0.2-0.2,0.3c-0.2,0.2-0.4,0.3-0.6,0.4c-0.2,0.1-0.4,0.1-0.7,0.1c-0.7,0-1.1-0.3-1.2-1.1c0-0.3,0-0.7,0-1
		c-0.2,0.5-0.3,1.1-0.3,1.7c0,0.4,0.2,0.7,0.5,0.9c0.3,0.2,0.6,0.4,0.9,0.4c0.6,0,1.3-0.2,1.8-0.7c0.1-0.2,0.2-0.4,0.2-0.6
		c0.1-0.2,0.2-0.4,0.2-0.5V69h1h0.1h2.5h0.2h2.4h0.2h2.4l0,0.1h1.3l0.2-0.3l0.1,0.3H57l0-0.2h4.8l0.1-0.3c0.1-0.3,0.2-0.6,0.2-0.9
		c-0.1-0.2-0.2-0.4-0.4-0.6c-0.2-0.2-0.4-0.4-0.7-0.6c-0.1-0.1-0.3-0.2-0.4-0.2c-0.3,0.1-0.6,0.2-0.9,0.4l-0.4,0.3L59,67.4l-0.4,0.3
		c0.1-0.2,0.1-0.5,0-0.7c0-0.1,0-0.2,0-0.3l-0.2-1.1l0.1,0l0.2-0.7l-0.4-0.2c-0.1-0.1-0.3-0.1-0.4-0.2c0-0.1-0.1-0.2-0.1-0.3
		l-0.3,0.6c0,0.1-0.1,0.2-0.1,0.2c0,0.1,0.1,0.2,0.2,0.2l0.7,2.7l-0.4,0.3h-1.1l0,0H56l-0.5-1.1L55.1,67.7z M59.1,67.8l0.2-0.2
		c0.3-0.2,0.6-0.4,1-0.5c0.2,0,0.5,0.1,0.7,0.3c0.2,0.2,0.4,0.5,0.5,0.7h-2.9L59.1,67.8z"/>
	<path class="st0" d="M69.9,69.1v-0.1l0.1-0.4c0.1-0.3,0.1-0.5,0.1-0.8l-0.5-2.2l0.2,0.1l0.2-0.7l-0.6-0.2c-0.1,0-0.2-0.1-0.2-0.1
		c-0.1-0.1-0.1-0.2-0.1-0.3l-0.2,0.5V65c0,0,0,0.1,0,0.1c0,0.1,0.1,0.2,0.2,0.2l0.7,2.9h-1.2l0,0h-2.7h-0.2h-0.8
		c-0.1-0.4-0.3-0.7-0.5-1c-0.2-0.3-0.4-0.5-0.7-0.5c-0.1,0-0.3,0.1-0.4,0.2c-0.2,0.2-0.3,0.5-0.4,0.7c-0.1,0.3-0.1,0.5-0.1,0.8
		c0,0.2,0.1,0.3,0.2,0.4C63,69,63.1,69,63.3,69h1c-0.1,0.3-0.2,0.5-0.4,0.7c-0.2,0.2-0.4,0.3-0.7,0.3c-0.2,0-0.4,0-0.6-0.1
		c0.5,0.6,0.8,0.8,1.1,0.8c0.3,0,0.6-0.3,0.8-0.9c0.1-0.3,0.2-0.5,0.2-0.8h0.9h0.1h2.5l0,0H69.9z M64.1,68.2h-0.6c0,0,0,0,0,0
		c-0.2,0-0.3-0.1-0.3-0.3c0-0.1,0-0.3,0.1-0.4c0.1-0.1,0.2-0.2,0.3-0.2C63.8,67.4,64,67.7,64.1,68.2L64.1,68.2z"/>
	<path class="st0" d="M71.5,65.4l-0.3-1l-0.6,0.9c0.1,0.4,0.2,0.9,0.3,1.3c0.1,0.7,0.2,1.3,0.3,1.7c0.1,0.3,0.1,0.7,0.1,1.1
		c0.1-0.3,0.3-0.7,0.3-1c0.1-0.4,0.1-0.7,0-1.1c-0.1-0.4-0.2-0.9-0.3-1.6v-0.1L71.5,65.4z"/>
	<polygon class="st0" points="76.6,72.1 77,71.8 76.4,71.2 76.1,71.6 75.7,71.2 75.3,71.6 75.9,72.1 76.3,71.8 	"/>
	<path class="st0" d="M88,69.1l0.2-0.3l0.1,0.3h1.4l0-0.1h4.7l0.1-0.3c0.1-0.3,0.2-0.6,0.2-0.9c-0.1-0.2-0.2-0.5-0.3-0.6
		c-0.2-0.2-0.4-0.4-0.7-0.6c-0.1-0.1-0.3-0.1-0.5-0.1c-0.3,0.1-0.6,0.2-0.9,0.4l-0.4,0.3l-0.3,0.2l-0.4,0.3c0.1-0.2,0.1-0.5,0-0.7
		c0-0.1,0-0.2,0-0.3L91,65.5h0.2l0.2-0.6L91,64.7l-0.4-0.2c0-0.1-0.1-0.2-0.1-0.3l-0.3,0.6c0,0.1-0.1,0.2-0.1,0.2
		c0,0.1,0.1,0.2,0.2,0.2l0.6,2.7l-0.4,0.3h-1.1l0,0h-0.8l-0.5-1.1l-0.5,0.5l0.3,0.6h-1.1l0,0h-2.6h-0.2h-2.4h-0.2h-2.5l-2.7,0L76,69
		h0.1c0.4,0,0.8,0.1,1.2,0.3c-0.1,0.1-0.2,0.2-0.2,0.3c-0.2,0.2-0.4,0.3-0.6,0.4c-0.2,0.1-0.4,0.1-0.7,0.1c-0.7,0-1.1-0.3-1.2-1.1
		c0-0.3,0-0.7,0-1c-0.2,0.5-0.3,1.1-0.3,1.7c0,0.4,0.2,0.7,0.4,0.9c0.3,0.2,0.6,0.4,0.9,0.4c0.7,0,1.3-0.2,1.8-0.7
		c0.1-0.2,0.2-0.4,0.2-0.6c0.1-0.2,0.2-0.4,0.2-0.5V69h1H79h2.5h0.2h2.4h0.2h2.4l0,0.1H88z M91.8,67.8l0.2-0.2
		c0.3-0.2,0.6-0.4,1-0.5c0.3,0,0.5,0.1,0.7,0.3c0.2,0.2,0.4,0.5,0.5,0.7h-2.9L91.8,67.8z"/>
	<polygon class="st0" points="88,70.1 88.6,70.6 89,70.2 88.4,69.8 	"/>
	<polygon class="st0" points="93,65.6 92.3,65.2 91.9,65.5 92.6,66 	"/>
	<path class="st0" d="M95.9,70c-0.2,0-0.4,0-0.6-0.1c0.5,0.6,0.9,0.8,1.1,0.8c0.3,0,0.6-0.3,0.8-0.9c0.1-0.3,0.2-0.5,0.2-0.8h0.8
		h0.2h1.4c0.1-0.3,0.1-0.4,0.1-0.5c0.1-0.3,0.1-0.6,0.1-0.8c-0.1-0.4-0.3-0.7-0.6-1l-0.4,0.6c0.2,0.3,0.4,0.6,0.5,0.9h-1.2h-0.2
		h-0.8c-0.1-0.4-0.2-0.7-0.4-1c-0.2-0.3-0.5-0.5-0.7-0.5c-0.1,0-0.3,0.1-0.4,0.2c-0.2,0.2-0.3,0.5-0.4,0.7c-0.1,0.3-0.1,0.5-0.1,0.8
		c0,0.2,0.1,0.3,0.2,0.4c0.1,0.1,0.3,0.2,0.4,0.2h1c-0.1,0.3-0.2,0.5-0.4,0.7C96.4,69.9,96.2,70,95.9,70z M96.8,68.2h-0.6
		c0,0,0,0,0,0c-0.2,0-0.3-0.1-0.3-0.3c0-0.1,0-0.3,0.1-0.4c0.1-0.1,0.2-0.2,0.3-0.2C96.4,67.4,96.6,67.7,96.8,68.2L96.8,68.2z"/>
	<polygon class="st0" points="99.3,70.1 99.9,70.6 100.3,70.2 99.6,69.7 	"/>
	<path class="st0" d="M101.2,65.4l-0.3-1l-0.6,0.9c0.1,0.4,0.2,0.9,0.3,1.3c0.1,0.7,0.3,1.4,0.3,1.7c0,0.3,0.1,0.7,0.1,1.1h0
		c0.1-0.3,0.3-0.7,0.3-1c0.1-0.4,0.1-0.7,0-1.1c-0.1-0.4-0.2-0.9-0.3-1.6v-0.1L101.2,65.4z"/>
	<path class="st0" d="M100.6,63.4c0-0.1,0.1-0.2,0.1-0.3c0-0.1-0.1-0.1-0.2-0.1c-0.2,0-0.4,0.1-0.6,0.3c-0.1,0.1-0.2,0.3-0.2,0.5
		c0,0.2,0.2,0.4,0.4,0.4c-0.1,0.2-0.2,0.4-0.2,0.5c0.2-0.3,0.6-0.5,0.9-0.5l0.1-0.4c-0.1,0.1-0.2,0.1-0.4,0.1
		c-0.2,0-0.5-0.1-0.7-0.2c0.1-0.2,0.3-0.3,0.5-0.2C100.5,63.4,100.5,63.4,100.6,63.4z"/>
	<polygon class="st0" points="104.6,66.7 105,66.3 104.4,65.8 104,66.2 	"/>
	<path class="st0" d="M114.4,69.1h3.6l0.2-0.5l0.1-0.2c0-0.1,0-0.1,0-0.2c-0.1-0.2-0.2-0.3-0.3-0.4l-2.1-2l2.2-0.7l0.2-0.8l-2.9,0.8
		l-0.2,0.7V66c0,0.1,0,0.1,0,0.2c0,0.1,0,0.1,0.1,0.2l0.1,0.1l0.4,0.3l0.1-0.1l1.7,1.6h-3l0-0.1h-2.6h-0.2h-2.4H109h-2.5h-0.1h-0.8
		c-0.2-0.4-0.4-0.7-0.7-0.9l-0.4,0.6c0.1,0.1,0.3,0.3,0.4,0.5c0.1,0.2,0.2,0.3,0.3,0.5c-0.1,0.3-0.2,0.6-0.5,0.9
		c-0.2,0.2-0.5,0.3-0.7,0.3c-0.2,0-0.4-0.1-0.6-0.1l0.1,0.1c0.1,0.1,0.2,0.2,0.2,0.2c0.4,0.4,0.7,0.6,0.9,0.6c0.3,0,0.6-0.2,0.7-0.5
		c0.2-0.4,0.3-0.8,0.4-1.2h0.9h0.1h2.5h0.2h2.4h0.3h2.4L114.4,69.1z"/>
	<path class="st0" d="M119.1,70c-0.2,0-0.4-0.1-0.6-0.1l0.1,0.1c0.1,0.1,0.1,0.1,0.2,0.2c0.4,0.4,0.6,0.6,0.9,0.6
		c0.2,0,0.5-0.2,0.7-0.5c0.2-0.4,0.3-0.8,0.4-1.2h0.9v0.1h1.1l0.2-0.4l2,0.8v-0.1c0.2-0.5,0.3-0.7,0.3-0.8c0.1-0.1,0.1-0.3,0.1-0.4
		c-0.1-0.4-0.2-0.8-0.5-1.1c-0.3-0.4-0.6-0.6-0.8-0.6c-0.2,0-0.3,0.1-0.4,0.2c-0.2,0.2-0.3,0.5-0.5,0.7l-0.5,0.8h-0.9h-0.1h-0.9
		c-0.1-0.4-0.4-0.7-0.6-0.9l-0.4,0.6c0.1,0.2,0.3,0.3,0.4,0.5c0.1,0.2,0.2,0.3,0.3,0.5c-0.1,0.3-0.2,0.6-0.5,0.9
		C119.6,69.9,119.4,70,119.1,70z M123.2,67.9c0.3-0.5,0.5-0.7,0.6-0.7c0.2,0,0.3,0.1,0.4,0.2c0.2,0.2,0.3,0.5,0.4,0.8v0.3
		L123.2,67.9L123.2,67.9z"/>
	<path class="st0" d="M3.5,73.9l-2.7,5.4h1l0.7-1.5h1.7l0.1,1.5h1l-0.7-5.4H3.5z M2.9,77.1l0.7-1.3c0.2-0.3,0.3-0.7,0.5-1
		c0,0.3,0,0.7,0.1,1l0.1,1.3H2.9z"/>
	<path class="st0" d="M8.8,75.4c-0.5,0-1,0.2-1.3,0.7L8,73.7l-0.9,0l-0.8,4c0,0.2-0.1,0.4-0.1,0.7c0,0.7,0.5,1,1.3,1c0,0,0,0,0,0
		c1.4-0.1,2.5-1.2,2.5-2.7c0,0,0,0,0,0C10,76,9.5,75.4,8.8,75.4z M7.6,78.7c0,0-0.1,0-0.1,0c-0.3,0-0.4-0.2-0.4-0.5
		c0-0.1,0-0.3,0-0.4l0.1-0.4c0.1-0.8,0.7-1.3,1.1-1.3c0.5,0,0.6,0.4,0.6,0.8C9,77.7,8.4,78.7,7.6,78.7z"/>
	<path class="st0" d="M13.1,77.3c-0.2,0.8-0.8,1.3-1.1,1.3c-0.3,0-0.5-0.2-0.5-0.6c0-0.2,0-0.4,0.1-0.5l0.4-2.1h-1l-0.4,2.2
		c0,0.2-0.1,0.5-0.1,0.7c0,0.1,0,0.2,0,0.2c0,0.5,0.5,0.9,1,0.9c0.5,0,1-0.3,1.3-0.8l-0.1,0.7h0.8c0.1-0.3,0.1-0.8,0.2-1.2l0.5-2.7
		l-0.8-0.1L13.1,77.3z"/>
	<path class="st0" d="M18.6,73.9c-0.5,0-1,0-1.4,0.1l-1,5.2c0.5,0.1,0.9,0.1,1.4,0.1c0.9,0.1,1.8-0.2,2.5-0.7
		c0.7-0.6,1.1-1.5,1.1-2.5c0-0.6-0.2-1.2-0.6-1.6C20,74.1,19.3,73.9,18.6,73.9z M19.5,77.9c-0.5,0.4-1.1,0.7-1.7,0.7
		c-0.2,0-0.4,0-0.6,0l0.7-3.9c0.2,0,0.4,0,0.6,0c1.1,0,1.6,0.6,1.6,1.5C20.2,76.8,19.9,77.4,19.5,77.9z"/>
	<polygon class="st0" points="21.5,79.3 21.5,79.2 21.5,79.2 	"/>
	<path class="st0" d="M24.3,75.4c-0.5,0-1,0.2-1.3,0.7l0.5-2.4h-0.9l-1.1,5.6h0.9l0.3-1.8c0.1-0.8,0.7-1.3,1.1-1.3c0,0,0.1,0,0.1,0
		c0.3,0,0.4,0.3,0.4,0.5c0,0.2,0,0.3,0,0.5l-0.4,2.2h0.9l0.4-2.2c0-0.2,0.1-0.5,0.1-0.7c0,0,0-0.1,0-0.1
		C25.3,75.8,24.9,75.4,24.3,75.4z"/>
	<path class="st0" d="M28.5,75.4c-1.5,0-2.6,1.3-2.6,2.7c0,0,0,0.1,0,0.1c0,0.7,0.5,1.2,1.1,1.2c0.6,0,1.2-0.4,1.4-1
		c0,0.3-0.1,0.6-0.1,0.9l0.9,0c0-0.6,0.1-1.2,0.2-1.8l0.4-2c-0.4-0.1-0.7-0.2-1.1-0.2C28.6,75.4,28.6,75.4,28.5,75.4z M28.5,77.2
		c-0.1,1-0.7,1.5-1.1,1.5s-0.6-0.3-0.6-0.7c0-0.9,0.6-1.7,1.5-1.8c0.1,0,0.3,0,0.4,0L28.5,77.2z"/>
	<path class="st0" d="M32.9,75.4c-0.5,0-1,0.2-1.3,0.7l0.5-2.4l-0.9,0l-0.8,4c0,0.2-0.1,0.4-0.1,0.7c0,0.7,0.5,1,1.3,1c0,0,0,0,0,0
		c1.4-0.1,2.5-1.2,2.5-2.7c0,0,0,0,0-0.1C34.1,75.9,33.6,75.4,32.9,75.4z M31.8,78.7c0,0-0.1,0-0.1,0c-0.3,0-0.4-0.2-0.4-0.5
		c0-0.1,0-0.3,0-0.4l0.1-0.4c0.1-0.8,0.7-1.3,1.1-1.3c0.5,0,0.6,0.4,0.6,0.8C33.2,77.7,32.6,78.7,31.8,78.7z"/>
	<polygon class="st0" points="34.5,79.3 35.4,79.3 36.1,75.4 35.2,75.4 	"/>
	<path class="st0" d="M35.9,73.9C35.9,73.9,35.9,73.9,35.9,73.9c-0.3,0-0.6,0.3-0.6,0.6c0,0.2,0.2,0.4,0.5,0.4v0.1c0,0,0,0,0,0
		c0.3,0,0.6-0.2,0.6-0.5c0,0,0,0,0,0C36.4,74.1,36.2,73.9,35.9,73.9z"/>
	<path class="st0" d="M41.7,76.3c-0.1,0.6-0.2,1.2-0.2,1.8c-0.1-0.5-0.3-1-0.5-1.7l-0.9-2.5H39l-1,5.4h0.9l0.5-2.3
		c0.1-0.9,0.2-1.5,0.3-2c0.1,0.6,0.3,1.2,0.5,1.7l1,2.5H42l0.9-5.4h-0.9L41.7,76.3z"/>
	<path class="st0" d="M45.8,75.4c-1.5,0-2.6,1.3-2.6,2.7c0,0,0,0.1,0,0.1c0,0.7,0.5,1.2,1.1,1.2c0.6,0,1.2-0.4,1.4-1
		c-0.1,0.3-0.1,0.6-0.1,0.9h0.8c0-0.6,0.1-1.2,0.3-1.8l0.4-2c-0.4-0.1-0.8-0.2-1.2-0.2C45.9,75.4,45.9,75.4,45.8,75.4z M45.8,77.2
		c-0.1,1-0.7,1.5-1.1,1.5s-0.6-0.3-0.6-0.7c0-0.9,0.6-1.7,1.5-1.8c0.1,0,0.3,0,0.4,0L45.8,77.2z"/>
	<path class="st0" d="M49.4,74.4l-1,0.3l-0.1,0.7h-0.5l-0.1,0.7h0.5L47.8,78c-0.1,0.2-0.1,0.5-0.1,0.7c0,0.4,0.3,0.8,0.9,0.8
		c0.2,0,0.4,0,0.6-0.1l0.1-0.7c-0.1,0-0.2,0-0.3,0c0,0,0,0-0.1,0c-0.2,0-0.3-0.2-0.3-0.3c0-0.2,0-0.4,0.1-0.6l0.3-1.6h0.8l0.1-0.7
		h-0.9L49.4,74.4z"/>
	<polygon class="st0" points="50.1,79.3 51,79.3 51.7,75.4 50.8,75.4 	"/>
	<path class="st0" d="M51.5,73.9C51.5,73.9,51.5,73.9,51.5,73.9c-0.3,0-0.6,0.3-0.6,0.6c0,0.2,0.2,0.4,0.5,0.4v0.1c0,0,0,0,0,0
		c0.3,0,0.5-0.2,0.5-0.5c0,0,0,0,0,0C52,74.1,51.8,73.9,51.5,73.9z"/>
	<path class="st0" d="M54.3,75.3C54.3,75.3,54.3,75.3,54.3,75.3c-1.3,0.1-2.3,1.2-2.2,2.5c0,0.1,0,0.2,0,0.3
		c0.1,0.8,0.8,1.4,1.7,1.3c0,0,0,0,0,0c1.3-0.1,2.3-1.1,2.2-2.4c0,0,0-0.1,0-0.1C55.9,76,55.2,75.3,54.3,75.3z M53.9,78.7
		c-0.5,0-0.8-0.4-0.8-0.9c0-0.7,0.4-1.7,1.1-1.7c0.6,0,0.7,0.5,0.7,0.9C55,77.7,54.5,78.7,53.9,78.7z"/>
	<path class="st0" d="M59.2,75.4c-0.6,0-1.1,0.3-1.4,0.8l0.1-0.7H57c-0.1,0.3-0.1,0.8-0.2,1.2l-0.5,2.6l0,0h0.9l0.3-1.8
		c0.1-0.9,0.7-1.4,1.1-1.4c0.4,0,0.5,0.2,0.5,0.6c0,0.1,0,0.3,0,0.4l-0.4,2.2h0.9l0.4-2.2c0-0.2,0.1-0.4,0.1-0.7c0-0.1,0-0.1,0-0.2
		C60.2,75.7,59.7,75.3,59.2,75.4z"/>
	<path class="st0" d="M63.5,75.4c-1.5,0-2.6,1.3-2.6,2.7c0,0,0,0.1,0,0.1c0,0.7,0.5,1.2,1.1,1.2c0.6,0,1.2-0.4,1.4-1
		c0,0.3-0.1,0.6-0.1,0.9h0.9c0-0.6,0.1-1.2,0.2-1.8l0.5-2c-0.4-0.1-0.8-0.2-1.2-0.2C63.6,75.4,63.5,75.4,63.5,75.4z M63.4,77.2
		c-0.1,1-0.7,1.5-1.1,1.5c-0.4,0-0.6-0.3-0.6-0.7c0-0.9,0.6-1.7,1.5-1.8c0.1,0,0.3,0,0.4,0L63.4,77.2z"/>
	<polygon class="st0" points="65.1,79.3 66,79.3 67.1,73.7 66.2,73.7 	"/>
	<polygon class="st0" points="71.8,77 72,76.2 70.1,76.2 70.3,74.7 72.4,74.7 72.5,74 69.5,74 68.5,79.3 71.6,79.3 71.8,78.5 
		69.6,78.5 69.9,77 	"/>
	<path class="st0" d="M76.4,75.5h-1.1l-0.5,0.7c-0.2,0.2-0.3,0.4-0.4,0.6c-0.1-0.1-0.1-0.3-0.2-0.6l-0.3-0.7l0,0h-1l0.9,1.9l-1.7,2
		h1.1l0.6-0.8c0.1-0.2,0.3-0.4,0.4-0.6c0.1,0.2,0.2,0.4,0.3,0.7l0.3,0.7h1l-0.9-2L76.4,75.5z"/>
	<path class="st0" d="M79.1,75.4c-0.5,0-1,0.2-1.3,0.7l0.4-2.4h-0.9l-1.1,5.6h0.9l0.3-1.8c0.1-0.8,0.7-1.3,1.1-1.3c0,0,0.1,0,0.1,0
		c0.2,0,0.4,0.3,0.4,0.5c0,0.2,0,0.3,0,0.5l-0.4,2.2h0.9l0.4-2.2c0-0.2,0.1-0.5,0.1-0.7c0,0,0-0.1,0-0.1
		C80.1,75.8,79.6,75.4,79.1,75.4z"/>
	<polygon class="st0" points="76.2,79.3 76.2,79.2 76.2,79.2 	"/>
	<path class="st0" d="M82,73.8C82,73.8,82,73.8,82,73.8c-0.3,0-0.6,0.3-0.6,0.6c0,0,0,0,0,0c0,0.3,0.2,0.5,0.5,0.4v0.1
		c0,0,0.1,0,0.1,0c0.3,0,0.5-0.3,0.4-0.6c0,0,0,0,0,0C82.5,74,82.3,73.8,82,73.8z"/>
	<polygon class="st0" points="80.6,79.3 81.5,79.3 82.3,75.4 81.3,75.4 	"/>
	<path class="st0" d="M85.3,75.4c-0.5,0-1,0.2-1.3,0.7l0.5-2.4l-0.9,0l-0.8,4c0,0.2-0.1,0.4-0.1,0.7c0,0.7,0.5,1,1.3,1c0,0,0,0,0,0
		c1.4-0.1,2.5-1.2,2.5-2.7c0,0,0-0.1,0-0.1C86.5,75.9,86,75.4,85.3,75.4z M84.3,78.7c0,0-0.1,0-0.1,0c-0.2,0-0.4-0.2-0.4-0.5
		c0-0.1,0-0.3,0-0.4l0.1-0.4c0.1-0.8,0.7-1.3,1.1-1.3c0.4,0,0.6,0.4,0.6,0.8C85.6,77.7,85.1,78.7,84.3,78.7z"/>
	<polygon class="st0" points="86.9,79.3 87.8,79.3 88.6,75.4 87.6,75.4 	"/>
	<path class="st0" d="M88.3,73.9C88.3,73.9,88.3,73.9,88.3,73.9c-0.3,0-0.6,0.3-0.6,0.6c0,0,0,0,0,0c0,0.3,0.3,0.4,0.5,0.4v0.1
		c0,0,0,0,0,0c0.3,0,0.5-0.2,0.5-0.5c0,0,0,0,0,0C88.8,74.1,88.5,73.9,88.3,73.9z"/>
	<path class="st0" d="M90.9,74.4l-1,0.3l-0.1,0.7h-0.5l-0.1,0.7h0.5L89.3,78c-0.1,0.2-0.1,0.5-0.1,0.7c0,0.4,0.3,0.8,0.9,0.8
		c0.2,0,0.4,0,0.6-0.1l0.1-0.7c-0.1,0-0.2,0-0.3,0c0,0,0,0-0.1,0c-0.2,0-0.3-0.2-0.3-0.3c0-0.2,0-0.4,0.1-0.6l0.3-1.6h0.9l0.1-0.7
		h-0.9L90.9,74.4z"/>
	<path class="st0" d="M93,73.8C93,73.8,93,73.8,93,73.8c-0.3,0-0.6,0.3-0.6,0.6c0,0,0,0,0,0c0,0.3,0.2,0.4,0.5,0.4v0.1
		c0,0,0,0,0.1,0c0.3,0,0.5-0.3,0.5-0.6c0,0,0,0,0,0C93.5,74,93.2,73.8,93,73.8z"/>
	<polygon class="st0" points="91.6,79.3 92.5,79.3 93.2,75.4 92.3,75.4 	"/>
	<path class="st0" d="M95.8,75.3C95.8,75.3,95.8,75.3,95.8,75.3c-1.3,0.1-2.3,1.2-2.2,2.5c0,0.1,0,0.1,0,0.2
		c0.1,0.8,0.8,1.4,1.6,1.4c0,0,0,0,0,0c1.3-0.1,2.3-1.1,2.2-2.4c0,0,0-0.1,0-0.1C97.4,76,96.7,75.3,95.8,75.3z M95.3,78.7
		c-0.5,0-0.8-0.4-0.8-0.9c0-0.7,0.4-1.7,1.2-1.7c0.6,0,0.7,0.5,0.7,0.9C96.5,77.7,96,78.7,95.3,78.7z"/>
	<path class="st0" d="M100.7,75.4c-0.6,0-1.1,0.3-1.4,0.8l0.1-0.7h-0.8c-0.1,0.3-0.1,0.8-0.2,1.2l-0.5,2.6v0h0.9l0.3-1.8
		c0.1-0.9,0.7-1.4,1.1-1.4c0.4,0,0.5,0.2,0.5,0.6c0,0.1,0,0.3,0,0.4l-0.4,2.2h0.9l0.4-2.2c0-0.2,0.1-0.4,0.1-0.7c0-0.1,0-0.1,0-0.2
		C101.7,75.7,101.2,75.3,100.7,75.4z"/>
	<path class="st0" d="M107.1,74.7c0.3,0,0.7,0.1,1,0.2l0.3-0.8c-0.4-0.2-0.8-0.3-1.2-0.2c-0.1,0-0.2,0-0.2,0c-1.7,0.1-3.1,1.5-3,3.3
		c0,0.1,0,0.2,0,0.3c0.1,1.2,1.1,2,2.3,2c0.5,0,1-0.1,1.4-0.2v-0.7c-0.4,0.1-0.7,0.2-1.1,0.2c-0.1,0-0.2,0-0.3,0
		c-0.8-0.1-1.3-0.8-1.2-1.6c0-0.7,0.2-1.4,0.8-1.9C106.1,74.9,106.6,74.7,107.1,74.7z"/>
	<path class="st0" d="M110.5,75.4c-1.3,0.1-2.3,1.1-2.2,2.4c0,0.1,0,0.2,0,0.3c0.1,0.8,0.8,1.4,1.6,1.3c0.5,0,0.9-0.1,1.4-0.3l0-0.6
		c-0.3,0.2-0.7,0.3-1.1,0.2c-0.3,0-0.6-0.1-0.8-0.4c-0.1-0.2-0.1-0.4-0.1-0.6c1.5,0,2.5-0.3,2.5-1.3c0,0,0-0.1,0-0.1
		C111.7,75.7,111.1,75.3,110.5,75.4z M109.3,77.1c0.1-0.5,0.6-0.9,1.1-1c0.3,0,0.5,0.1,0.5,0.4C110.9,76.9,110.2,77.1,109.3,77.1z"
		/>
	<path class="st0" d="M114.9,75.3c-0.6,0-1.1,0.3-1.4,0.8l0.1-0.7h-0.8c-0.1,0.3-0.1,0.8-0.2,1.2l-0.5,2.7l0,0h0.9l0.3-1.8
		c0.1-0.9,0.7-1.4,1.1-1.4c0.4,0,0.5,0.2,0.5,0.6c0,0.1,0,0.3,0,0.4l-0.4,2.2h0.9l0.4-2.2c0-0.2,0.1-0.4,0.1-0.7c0-0.1,0-0.2,0-0.2
		C115.8,75.7,115.4,75.3,114.9,75.3z"/>
	<path class="st0" d="M118.4,74.4l-1,0.3l-0.1,0.7h-0.5l-0.1,0.7h0.5l-0.3,1.7c-0.1,0.2-0.1,0.5-0.1,0.7c0,0.4,0.3,0.8,0.9,0.8
		c0.2,0,0.4,0,0.6-0.1l0.1-0.7c-0.1,0-0.2,0-0.3,0c0,0,0,0-0.1,0c-0.2,0-0.3-0.2-0.3-0.3c0-0.2,0-0.4,0.1-0.6l0.3-1.6h0.9l0.1-0.7
		h-0.9L118.4,74.4z"/>
	<path class="st0" d="M120.4,76.3c0.1-0.3,0.1-0.5,0.1-0.8h-0.8c-0.1,0.4-0.1,0.9-0.2,1.5l-0.4,2.4h0.9l0.3-1.6
		c0.1-0.8,0.6-1.5,1.2-1.5h0.2l0.2-0.9h-0.2C121.1,75.4,120.6,75.8,120.4,76.3z"/>
	<path class="st0" d="M124.1,75.4c-1.3,0.1-2.3,1.1-2.2,2.4c0,0.1,0,0.2,0,0.3c0.1,0.8,0.8,1.4,1.6,1.3c0.5,0,0.9-0.1,1.3-0.3v-0.6
		c-0.3,0.2-0.7,0.3-1.1,0.2c-0.3,0-0.6-0.1-0.8-0.4c-0.1-0.2-0.1-0.4-0.1-0.6c1.5,0,2.5-0.3,2.5-1.3c0,0,0-0.1,0-0.1
		C125.3,75.7,124.7,75.3,124.1,75.4z M122.9,77.1c0.1-0.5,0.6-0.9,1.1-1c0.3,0,0.5,0.1,0.5,0.4C124.5,76.9,123.8,77.1,122.9,77.1z"
		/>
</g>
</svg>
